<svg xmlns="http://www.w3.org/2000/svg" version="1.1" xmlns:xlink="http://www.w3.org/1999/xlink" xmlns:svgjs="http://svgjs.dev/svgjs" width="128" height="128" viewBox="0 0 128 128"><g transform="matrix(0.8046875,0,0,0.8046875,12.760752631578946,22.82667576360288)"><svg viewBox="0 0 95 77" data-background-color="#ffffff" preserveAspectRatio="xMidYMid meet" height="103" width="128" xmlns="http://www.w3.org/2000/svg" xmlns:xlink="http://www.w3.org/1999/xlink"><g id="tight-bounds" transform="matrix(1,0,0,1,-0.24049999999999727,-0.2490542299999987)"><svg viewBox="0 0 95.481 77.49810846" height="77.49810846" width="95.481"><g><svg viewBox="0 0 95.481 77.49810846" height="77.49810846" width="95.481"><g><svg viewBox="0 0 95.481 77.49810846" height="77.49810846" width="95.481"><g><svg viewBox="0 0 95.481 77.49810846" height="77.49810846" width="95.481"><g><svg viewBox="0 0 95.481 77.49810846" height="77.49810846" width="95.481"><g><svg viewBox="0 0 95.481 77.49810846" height="77.49810846" width="95.481"><g><svg version="1.1" xmlns="http://www.w3.org/2000/svg" xmlns:xlink="http://www.w3.org/1999/xlink" x="0" y="0" viewBox="0 0 100 81.166" enable-background="new 0 0 100 81.166" xml:space="preserve" width="95.481" height="77.49810846" class="icon-icon-0" data-fill-palette-color="accent" id="icon-0"><path d="M87.043 0H50 12.957L0 23.557l50 57.609 50-57.609L87.043 0zM83.635 6.345l7.59 13.801h-13.64L83.635 6.345zM77.168 6.043l-5.537 12.636L57.792 6.043H77.168zM64.273 20.146H50 35.727L50 7.113 64.273 20.146zM42.208 6.043L28.37 18.679 22.832 6.043H42.208zM16.365 6.345l6.05 13.801H8.775L16.365 6.345zM10.288 26.189h14.776l15.078 34.399L10.288 26.189zM31.663 26.189H50h18.338L50 68.022 31.663 26.189zM59.857 60.589l15.078-34.399h14.777L59.857 60.589z" fill="#4b91f1" data-fill-palette-color="accent"></path></svg></g></svg></g></svg></g></svg></g></svg></g><g></g></svg></g><defs></defs></svg><rect width="95.481" height="77.49810846" fill="none" stroke="none" visibility="hidden"></rect></g></svg></g></svg>